<svg xmlns="http://www.w3.org/2000/svg" width="64" height="64" viewBox="0 0 64 64">
  <defs>
    <linearGradient id="g" x1="0" y1="0" x2="1" y2="1">
      <stop offset="0" stop-color="#e10600"/>
      <stop offset="1" stop-color="#ff3b30"/>
    </linearGradient>
  </defs>
  <rect x="6" y="6" width="52" height="52" rx="14" fill="url(#g)"/>
  <rect x="10" y="10" width="44" height="44" rx="12" fill="#050507" opacity="0.22"/>
  <path d="M32 16c-9.5 0-16 6.7-16 16.2C16 42.8 22.7 48 32.4 48c7.2 0 12.7-2.6 15.6-7.3l-8.3-.9c-1.3 1.4-3.5 2.2-6.5 2.2-4.8 0-8-2.2-8.8-6h23.9c.1-.8.2-1.7.2-2.7C48 22.9 41.7 16 32 16zm-7.6 14.7c.7-3.9 3.6-6.2 7.7-6.2 4.1 0 6.9 2.3 7.6 6.2H24.4z"
        fill="#ffffff"/>
</svg>

